# xmcd CD database file
#
# Track frame offsets:
#	150
#	39909
#	51638
#	71735
#	93461
#	135562
#	142883
#	211150
#
# Disc length: 4096 seconds
#
# Revision: 0
# Processed by: cddbd v1.5.2PL0 Copyright (c) Steve Scherf et al.
# Submitted via: CDex 1.70beta3
#
DISCID=720ffe08
DTITLE=Natural Born Killer Band - Catastrophe of Love Psychedelic
DYEAR=2016
DGENRE=Jazz
TTITLE0=Introduction of NBKB
TTITLE1=Biological material
TTITLE2=OBSESSIONS
TTITLE3=Sneerer
TTITLE4=Circuit diagram
TTITLE5=BALUN
TTITLE6=Common mode filter
TTITLE7=2.28
EXTD=YEAR: 2016
EXTT0=
EXTT1=
EXTT2=
EXTT3=
EXTT4=
EXTT5=
EXTT6=
EXTT7=
PLAYORDER=
